<?xml version="1.0" encoding="utf-8"?>
<!-- Generator: Adobe Illustrator 24.0.1, SVG Export Plug-In . SVG Version: 6.00 Build 0)  -->
<svg version="1.1" id="Calque_1" xmlns="http://www.w3.org/2000/svg" xmlns:xlink="http://www.w3.org/1999/xlink" x="0px" y="0px"
	 viewBox="0 0 32 32" style="enable-background:new 0 0 32 32;" xml:space="preserve">
<style type="text/css">
	.st0{opacity:0.25;fill:#FFFFFF;}
	.st1{fill:#FFB300;}
</style>
<polygon class="st0" points="25.3,8.9 25.2,10.4 27.8,12.3 29.2,15.3 28.9,28.2 19.7,27.5 15.7,19.1 15.2,21.2 13.4,21.2 10.3,19.8 
	2.7,19.4 0.9,6.7 15,6.7 25.2,6.7 "/>
<g>
	<path d="M3.8,19l-0.2-1.1L2,9L1.7,7.3h1.7h19H24l-0.2,1.3c0.5,0,1,0.1,1.5,0.2L26,3.6l0.2-1.2l1.2,0l3.9,0c0.4,0,0.8-0.3,0.8-0.8
		c0-0.2-0.1-0.4-0.2-0.5c-0.1-0.2-0.3-0.2-0.5-0.2l-5.8,0c-0.4,0-0.7,0.3-0.8,0.7l-0.4,3l-0.2,1.2h-1.2l-22.1,0c0,0-0.1,0-0.1,0
		c-0.2,0-0.4,0.1-0.5,0.3C0,6.3,0,6.5,0,6.7l2.3,13.1c0.1,0.4,0.4,0.6,0.7,0.7l10.4,0.7v-0.6c0-0.3,0-0.6,0.1-0.9L4.9,19L3.8,19z"/>
	<path d="M7.2,27.5c-0.5,0-1,0.4-1,1c0,0.5,0.4,1,1,1c0.5,0,1-0.4,1-1C8.2,28,7.8,27.5,7.2,27.5z"/>
	<path d="M18.1,15.5c0-2.5,2.3-4.6,5.2-4.6c0.1,0,0.1,0,0.2,0c0.5,0,1,0.1,1.5,0.3c2,0.6,3.4,2.3,3.4,4.3V17h1.1v-1.5
		c0-2.6-1.9-4.8-4.4-5.5c-0.5-0.1-1-0.2-1.5-0.2c-0.1,0-0.2,0-0.4,0c-3.5,0-6.3,2.6-6.3,5.7V17h1.1L18.1,15.5L18.1,15.5z"/>
	<path class="st1" d="M17.4,30h11.7c0.9,0,1.7-0.8,1.7-1.7v-7.7c0-0.8-0.6-1.5-1.4-1.7l-0.8-0.1h-4.5h-1.6H18l-0.8,0.1
		c-0.6,0.1-1,0.4-1.2,0.9c-0.1,0.2-0.2,0.5-0.2,0.8v0.8v7C15.7,29.2,16.5,30,17.4,30z M21.3,22.4c0-0.3,0.1-0.5,0.1-0.7
		c0.3-0.7,1-1.2,1.8-1.2c0.2,0,0.4,0,0.5,0.1c0.8,0.2,1.4,1,1.4,1.8v2.4c0,1.1-0.9,1.9-1.9,1.9s-1.9-0.9-1.9-1.9L21.3,22.4
		L21.3,22.4z M20.4,29.4C20.4,29.4,20.4,29.4,20.4,29.4c-0.1,0-0.1,0-0.1,0H20.4z"/>
	<path d="M17.4,31.1h11.7c1.6,0,2.9-1.3,2.9-2.9v-7.7c0-1.4-1-2.6-2.4-2.8V17h-1.1v0.6h-4.3h-1.6h-4.6V17h-1.1v0.7
		c-1.1,0.2-1.9,1-2.2,2c-0.1,0.3-0.1,0.6-0.1,0.9v0.7v7C14.6,29.9,15.9,31.1,17.4,31.1z M15.7,21.3v-0.8c0-0.3,0.1-0.5,0.2-0.8
		c0.2-0.5,0.7-0.8,1.2-0.9l0.8-0.1h4.5h1.6h4.5l0.8,0.1c0.8,0.1,1.4,0.9,1.4,1.7v7.7c0,0.9-0.8,1.7-1.7,1.7H17.4
		c-0.9,0-1.7-0.8-1.7-1.7C15.7,28.3,15.7,21.3,15.7,21.3z"/>
	<path d="M20.4,29.4h-0.1C20.3,29.4,20.3,29.4,20.4,29.4C20.4,29.4,20.4,29.4,20.4,29.4z"/>
	<path d="M23.3,26.7c1.1,0,1.9-0.9,1.9-1.9v-2.4c0-0.9-0.6-1.6-1.4-1.8c-0.2-0.1-0.4-0.1-0.5-0.1c-0.8,0-1.5,0.5-1.8,1.2
		c-0.1,0.2-0.1,0.5-0.1,0.7v2.4C21.3,25.9,22.2,26.7,23.3,26.7z M22.5,22.4c0-0.3,0.1-0.5,0.3-0.7c0.1-0.1,0.3-0.1,0.5-0.1
		c0,0,0.1,0,0.1,0c0.4,0.1,0.7,0.4,0.7,0.8v2.4c0,0.4-0.4,0.8-0.8,0.8s-0.8-0.4-0.8-0.8C22.5,24.8,22.5,22.4,22.5,22.4z"/>
</g>
</svg>
