<?xml version="1.0" encoding="utf-8"?>
<!-- Generator: Adobe Illustrator 24.0.1, SVG Export Plug-In . SVG Version: 6.00 Build 0)  -->
<svg version="1.1" id="Calque_1" xmlns="http://www.w3.org/2000/svg" xmlns:xlink="http://www.w3.org/1999/xlink" x="0px" y="0px"
	 viewBox="0 0 22 22" style="enable-background:new 0 0 22 22;" xml:space="preserve">
<style type="text/css">
	.st0{opacity:0.25;fill:#FFFFFF;}
	.st1{fill:#FFB300;}
</style>
<polygon class="st0" points="17.4,0 12.6,0 11.7,1.4 11.2,1.9 9.5,0.4 8,1.9 6.4,0.4 4.9,1.9 3.5,0.6 1.9,1.9 0.5,0.6 0.5,20 
	1,21.1 2.2,21.6 17.1,21.6 18.5,21.3 19.2,20.4 19.4,19.1 19.7,12 19.7,9.6 20.9,9.5 20.6,6.8 17.9,4.9 18.5,4.4 20.8,2.9 20.9,1.2 
	20.8,0.1 "/>
<g>
	<polygon class="st1" points="15,2.2 20.9,2.2 20.8,2.9 17.7,4.9 16,3.8 15,2.8 	"/>
	<rect x="15" y="8.2" class="st1" width="5.8" height="0.9"/>
	<g>
		<g>
			<path d="M19.3,10.6h-0.1h-0.7h-1h-0.7h-1h-0.4V11c0,0,0,0,0,0v8.8c0,0.5,0.2,1,0.5,1.4H2.2c-0.8,0-1.4-0.6-1.4-1.4V1.5l0.8,0.8
				c0.2,0.2,0.4,0.2,0.6,0L3.5,1l1.2,1.2c0.2,0.2,0.4,0.2,0.6,0L6.5,1l1.2,1.2c0.2,0.2,0.4,0.2,0.6,0L9.6,1l1.2,1.2
				c0.2,0.2,0.4,0.2,0.6,0L12.6,1c0.2-0.2,0.4-0.4,0.6-0.6l-0.3-0.3c-0.2-0.2-0.4-0.2-0.6,0l-1.2,1.2L9.9,0.1C9.7,0,9.4,0,9.3,0.1
				L8,1.3L6.8,0.1C6.6,0,6.4,0,6.2,0.1L5,1.3L3.8,0.1C3.6,0,3.3,0,3.2,0.1L2,1.3L0.7,0.1C0.6,0,0.3,0,0.1,0.1C0,0.2,0,0.3,0,0.4
				v19.3C0,21,1,22,2.2,22h15.2c0,0,0,0,0,0c1.2,0,2.2-1,2.2-2.2V11C19.7,10.8,19.5,10.6,19.3,10.6z M18.8,19.8
				c0,0.8-0.6,1.4-1.4,1.4c-0.8,0-1.4-0.6-1.4-1.4v-8.3h2.8V19.8z"/>
			<path d="M7.6,9.8c-0.4,0-0.8-0.3-0.8-0.7c0-0.2-0.2-0.4-0.4-0.4S6,8.9,6,9.1c0,0.7,0.5,1.3,1.2,1.5V11c0,0.2,0.2,0.4,0.4,0.4
				s0.4-0.2,0.4-0.4v-0.4c0.7-0.2,1.2-0.8,1.2-1.5c0-0.8-0.7-1.5-1.6-1.5C7.2,7.6,6.9,7.3,6.9,7s0.3-0.7,0.8-0.7S8.4,6.6,8.4,7
				c0,0.2,0.2,0.4,0.4,0.4S9.3,7.2,9.3,7c0-0.7-0.5-1.3-1.2-1.5V5.2c0-0.2-0.2-0.4-0.4-0.4S7.2,5,7.2,5.2v0.3C6.5,5.7,6,6.2,6,6.9
				c0,0.8,0.7,1.5,1.6,1.5c0.4,0,0.8,0.3,0.8,0.7C8.4,9.5,8.1,9.8,7.6,9.8z"/>
			<path d="M11.1,7.6c-0.2,0-0.4,0.2-0.4,0.4c0,0.2,0.2,0.4,0.4,0.4H12c0.1,0,0.3-0.1,0.3-0.2c-0.2-0.2-0.3-0.4-0.4-0.7L11.1,7.6
				L11.1,7.6z"/>
			<path d="M4.6,8c0-0.2-0.2-0.4-0.4-0.4H3.3C3.1,7.6,2.9,7.8,2.9,8c0,0.2,0.2,0.4,0.4,0.4h0.8C4.4,8.5,4.6,8.3,4.6,8z"/>
			<path d="M12.4,8c0-0.2-0.2-0.4-0.4-0.4h-0.8c-0.2,0-0.4,0.2-0.4,0.4c0,0.2,0.2,0.4,0.4,0.4H12C12.2,8.5,12.4,8.3,12.4,8z"/>
			<path d="M12.2,12.4H5.4c-0.2,0-0.4,0.2-0.4,0.4c0,0.2,0.2,0.4,0.4,0.4h6.8c0.2,0,0.4-0.2,0.4-0.4C12.6,12.6,12.4,12.4,12.2,12.4z
				"/>
			<path d="M3.4,12.5c-0.1-0.1-0.2-0.1-0.3-0.1c-0.1,0-0.2,0-0.3,0.1c-0.1,0.1-0.1,0.2-0.1,0.3c0,0.1,0,0.2,0.1,0.3s0.2,0.1,0.3,0.1
				s0.2,0,0.3-0.1c0.1-0.1,0.1-0.2,0.1-0.3C3.5,12.7,3.5,12.6,3.4,12.5z"/>
			<path d="M12.2,15.2H5.4c-0.2,0-0.4,0.2-0.4,0.4s0.2,0.4,0.4,0.4h6.8c0.2,0,0.4-0.2,0.4-0.4C12.6,15.4,12.4,15.2,12.2,15.2z"/>
			<path d="M3.4,15.3c-0.1-0.1-0.2-0.1-0.3-0.1c-0.1,0-0.2,0-0.3,0.1c-0.1,0.1-0.1,0.2-0.1,0.3c0,0.1,0,0.2,0.1,0.3
				C2.9,16,3,16.1,3.1,16.1s0.2,0,0.3-0.1c0.1-0.1,0.1-0.2,0.1-0.3C3.5,15.5,3.5,15.4,3.4,15.3z"/>
			<path d="M12.2,18.1H5.4c-0.2,0-0.4,0.2-0.4,0.4s0.2,0.4,0.4,0.4h6.8c0.2,0,0.4-0.2,0.4-0.4C12.6,18.3,12.4,18.1,12.2,18.1z"/>
			<path d="M3.1,18.1c-0.1,0-0.2,0-0.3,0.1c-0.1,0.1-0.1,0.2-0.1,0.3c0,0.1,0,0.2,0.1,0.3c0.1,0.1,0.2,0.1,0.3,0.1s0.2,0,0.3-0.1
				c0.1-0.1,0.1-0.2,0.1-0.3s0-0.2-0.1-0.3C3.3,18.1,3.2,18.1,3.1,18.1z"/>
		</g>
		<g>
			<g>
				<g>
					<path d="M22,9.7h-8.3V9.2h0.7V7.5c0-0.6,0.3-1.2,0.8-1.5L17,4.9l-1.8-1.1c-0.5-0.3-0.8-0.9-0.8-1.5V0.6h-0.7V0.1H22v0.5h-0.7
						v1.7c0,0.6-0.3,1.2-0.8,1.5l-1.8,1.1l1.8,1.1c0.5,0.3,0.8,0.9,0.8,1.5v1.7H22V9.7L22,9.7z M15.3,9.2h5V7.5
						c0-0.3-0.2-0.6-0.4-0.7l-2.1-1.3l-2.1,1.3c-0.3,0.2-0.4,0.4-0.4,0.7L15.3,9.2L15.3,9.2z M15.7,3.1l2.1,1.3l2.1-1.3
						c0.3-0.2,0.4-0.4,0.4-0.7V0.6h-5v1.7C15.3,2.6,15.5,2.9,15.7,3.1L15.7,3.1z"/>
				</g>
			</g>
			<g>
				<path d="M21.6,0.8H14c-0.2,0-0.4-0.2-0.4-0.4C13.7,0.2,13.8,0,14,0h7.6C21.8,0,22,0.2,22,0.4C22,0.6,21.8,0.8,21.6,0.8z"/>
			</g>
			<g>
				<path d="M21.6,9.9H14c-0.2,0-0.4-0.2-0.4-0.4s0.2-0.4,0.4-0.4h7.6c0.2,0,0.4,0.2,0.4,0.4S21.8,9.9,21.6,9.9z"/>
			</g>
		</g>
	</g>
</g>
</svg>
