<?xml version="1.0" encoding="utf-8"?>
<!-- Generator: Adobe Illustrator 24.0.1, SVG Export Plug-In . SVG Version: 6.00 Build 0)  -->
<svg version="1.1" id="Capa_1" xmlns="http://www.w3.org/2000/svg" xmlns:xlink="http://www.w3.org/1999/xlink" x="0px" y="0px"
	 viewBox="0 0 32 32" style="enable-background:new 0 0 32 32;" xml:space="preserve">
<style type="text/css">
	.st0{opacity:0.25;fill:#FFFFFF;}
	.st1{fill:#FFB300;}
</style>
<polygon class="st0" points="31.5,13.7 24.7,13.7 24.7,6.8 18.4,0.6 1.2,0.9 0.8,1.7 0.8,30 1.5,31.5 30.2,31.5 31.5,31.1 "/>
<g>
	<polygon class="st1" points="6.8,8 11.9,8 12.9,14 12.2,14.3 10,14.7 6.6,14.3 6,13.7 6,9.9 6.4,7.8 	"/>
	<g>
		<g>
			<path d="M31.4,13h-4c-0.3,0-0.6,0.3-0.6,0.6v8.9c0,0.3,0.3,0.6,0.6,0.6c0.3,0,0.6-0.3,0.6-0.6v-8.2h2.8v16.5h-1.4H28v-9.2
				c0-0.3-0.3-0.6-0.6-0.6s-0.6,0.3-0.6,0.6v9.2h-1.3V17.8c0-0.3-0.3-0.6-0.6-0.6h-4c-0.3,0-0.6,0.3-0.6,0.6v12.9H19v-8.6
				c0-0.3-0.3-0.6-0.6-0.6h-4c-0.3,0-0.6,0.3-0.6,0.6v8.6h-1.3v-5c0-0.3-0.3-0.6-0.6-0.6h-4c-0.3,0-0.6,0.3-0.6,0.6v5H1.9
				c-0.3,0-0.6-0.3-0.6-0.6V1.9c0-0.3,0.3-0.6,0.6-0.6H18v4.1c0,1,0.8,1.9,1.9,1.9H24v7.7c0,0.3,0.3,0.6,0.6,0.6
				c0.3,0,0.6-0.3,0.6-0.6V6.6c0-0.2-0.1-0.3-0.2-0.4l-6-6C18.9,0.1,18.8,0,18.6,0H1.9C0.8,0,0,0.8,0,1.9v28.3c0,1,0.8,1.9,1.9,1.9
				h29.5c0.3,0,0.6-0.3,0.6-0.6V13.7C32,13.3,31.7,13,31.4,13z M19.2,2.1L23.1,6h-3.2c-0.3,0-0.6-0.3-0.6-0.6V2.1z M11.3,30.8H8.5
				v-4.4h2.8V30.8z M17.8,30.8H15v-7.9h2.8V30.8z M24.3,30.8h-2.8V18.4h2.8V30.8z"/>
		</g>
	</g>
	<g>
		<g>
			<path d="M15.9,18.4H4c-0.3,0-0.6,0.3-0.6,0.6s0.3,0.6,0.6,0.6h11.9c0.3,0,0.6-0.3,0.6-0.6S16.3,18.4,15.9,18.4z"/>
		</g>
	</g>
	<g>
		<g>
			<path d="M8,21.4H4c-0.3,0-0.6,0.3-0.6,0.6s0.3,0.6,0.6,0.6h4c0.3,0,0.6-0.3,0.6-0.6S8.3,21.4,8,21.4z"/>
		</g>
	</g>
	<g>
		<path d="M13.1,7.7c0-0.5-0.5-0.9-1-0.9h-0.6c-0.1-1.1-1-1.9-2.1-1.9c-1.1,0-2,0.8-2.1,1.9H6.6c-0.5,0-0.9,0.4-1,0.9l-0.4,5.5
			c0,0.5,0.1,1,0.5,1.4c0.4,0.4,0.9,0.6,1.4,0.6h4.5c0.5,0,1-0.2,1.4-0.6c0.4-0.4,0.5-0.9,0.5-1.4L13.1,7.7z M7.8,9
			c0.3,0,0.6-0.3,0.6-0.6V8h2v0.4C10.4,8.7,10.7,9,11,9c0.3,0,0.6-0.3,0.6-0.6V8h0.4l0.4,5.3c0,0.2-0.1,0.4-0.2,0.5
			c-0.1,0.2-0.3,0.2-0.5,0.2H7.1c-0.2,0-0.4-0.1-0.5-0.2c-0.1-0.2-0.2-0.3-0.2-0.5L6.8,8h0.4v0.4C7.2,8.7,7.5,9,7.8,9z M8.4,6.8
			c0.1-0.4,0.5-0.8,1-0.8c0.5,0,0.9,0.3,1,0.8H8.4z"/>
		<path d="M8.6,12.1c0.1,0.1,0.3,0.2,0.4,0.2s0.3-0.1,0.4-0.2l1.5-1.5c0.1-0.1,0.2-0.3,0.2-0.4c0-0.2-0.1-0.3-0.2-0.4
			c-0.2-0.2-0.6-0.2-0.8,0L9,10.9l-0.3-0.3c-0.2-0.2-0.6-0.2-0.8,0c-0.1,0.1-0.2,0.3-0.2,0.4s0.1,0.3,0.2,0.4L8.6,12.1z"/>
	</g>
</g>
</svg>
