<?xml version="1.0" encoding="utf-8"?>
<!-- Generator: Adobe Illustrator 24.0.1, SVG Export Plug-In . SVG Version: 6.00 Build 0)  -->
<svg version="1.1" id="Calque_1" xmlns="http://www.w3.org/2000/svg" xmlns:xlink="http://www.w3.org/1999/xlink" x="0px" y="0px"
	 viewBox="0 0 22 22" style="enable-background:new 0 0 22 22;" xml:space="preserve">
<style type="text/css">
	.st0{opacity:0.25;fill:#FFFFFF;}
	.st1{fill:#FFB300;}
</style>
<polygon class="st0" points="6.8,19.8 15.2,19.8 14.9,18.3 14.4,17.9 13.3,15.2 8.6,15.2 7.8,18 7,18.3 6.8,18.8 "/>
<polygon class="st0" points="1.3,2.3 0.3,3.4 0.5,14.3 1.5,15.2 20.2,15.2 21.2,14.9 21.7,14 21.7,3.7 21.2,2.3 20.2,2 "/>
<g>
	<polygon class="st1" points="8.4,6.8 12.5,6.8 12.2,9.4 8.8,9.2 8.4,8.2 8.1,6.8 	"/>
	<g>
		<g>
			<path d="M5,20.2c-0.2,0-0.4-0.2-0.4-0.4c0-0.2,0.2-0.4,0.4-0.4h1.5v-0.5c0-0.6,0.4-1.1,1-1.3l0,0l0.7-2H1.8c-1,0-1.8-0.8-1.8-1.8
				V3.6c0-1,0.8-1.8,1.8-1.8h18.4c1,0,1.8,0.8,1.8,1.8v10.1c0,1-0.8,1.8-1.8,1.8h-6.4l0.7,2l0,0c0.6,0.1,1,0.7,1,1.3v0.5H17
				c0.2,0,0.4,0.2,0.4,0.4s-0.2,0.4-0.4,0.4H5L5,20.2z M7.8,18.3c-0.3,0-0.5,0.2-0.5,0.5v0.5h7.5v-0.5c0-0.3-0.2-0.5-0.5-0.5H7.8z
				 M8.3,17.5h5.4l-0.7-2H9L8.3,17.5z M0.8,13.8c0,0.6,0.5,1,1,1h18.4c0.6,0,1-0.5,1-1v-0.5H0.8V13.8z M0.8,12.5h20.5v-8H0.8V12.5z
				 M1.8,2.6c-0.6,0-1,0.4-1,1v0.1h20.5V3.6c0-0.6-0.5-1-1-1H1.8z"/>
		</g>
		<g>
			<path d="M12.1,9.9L8.7,9.6c-0.2,0-0.3-0.1-0.4-0.3L7.9,7c0-0.2,0.1-0.4,0.3-0.4c0,0,0,0,0.1,0h3.9L12.3,6c0-0.2,0.2-0.3,0.4-0.3
				l1,0c0.1,0,0.2,0,0.3,0.1C14,5.9,14.1,6,14.1,6.1c0,0.2-0.2,0.4-0.4,0.4l-0.7,0l-0.4,3.1c0,0.2-0.2,0.3-0.4,0.3L12.1,9.9z M9,8.9
				l2.9,0.2l0.2-1.8H8.8L9,8.9z"/>
		</g>
		<g>
			<circle cx="9.4" cy="10.9" r="0.4"/>
		</g>
		<g>
			<circle cx="11.8" cy="10.9" r="0.4"/>
		</g>
	</g>
</g>
</svg>
