<?xml version="1.0" encoding="utf-8"?>
<!-- Generator: Adobe Illustrator 24.0.1, SVG Export Plug-In . SVG Version: 6.00 Build 0)  -->
<svg version="1.1" id="Layer_1" xmlns="http://www.w3.org/2000/svg" xmlns:xlink="http://www.w3.org/1999/xlink" x="0px" y="0px"
	 viewBox="0 0 32 32" style="enable-background:new 0 0 32 32;" xml:space="preserve">
<style type="text/css">
	.st0{opacity:0.25;fill:#FFFFFF;}
	.st1{fill:#FFB300;}
</style>
<path class="st0" d="M1.9,32h28.3v-6.2l-3-2.4l-6.3-4.1l-0.1-5.5l1.4-1.7l-0.2-7.8L19,1l-3-0.5L13.2,1l-2.4,2.2L9.8,7.7l0.3,5.5
	l1.2,0.7l-0.2,5.8c0,0-7.2,4.4-7.4,4.4c-0.2,0-1.8,2.5-1.9,2.5s0.2,4.3,0.2,4.3L1.9,32z"/>
<g>
	<g>
		<g>
			<path class="st1" d="M20.3,13.4C20.1,13.5,20,13.7,20,14v5.6c0,0.4,0.2,0.7,0.5,0.9c0.4,0.2,1.9,1,3.8,2.1
				c1.4-1.8,2.3-4.1,2.3-6.6c0-4-2.2-7.5-5.5-9.3v5.1C21.2,12.4,20.8,13,20.3,13.4z"/>
			<path class="st1" d="M12,19.6v-5.6c0-0.2-0.1-0.5-0.3-0.6c-0.5-0.4-0.9-1-0.9-1.6V6.7C7.6,8.5,5.4,12,5.4,16
				c0,2.5,0.9,4.8,2.3,6.6c1.9-1.2,3.4-1.9,3.8-2.2C11.8,20.3,12,19.9,12,19.6z"/>
		</g>
	</g>
	<g>
		<g>
			<path d="M1.9,32c0.4,0,0.7-0.3,0.7-0.7v-4c0-0.6,0.3-1.2,0.8-1.6c3.6-2.9,7.4-4.9,8.1-5.2c0.3-0.2,0.5-0.5,0.5-0.9v-5.6
				c0-0.2-0.1-0.5-0.3-0.6c-0.5-0.4-0.9-0.9-0.9-1.6V6c0-2.5,2-4.5,4.5-4.5h1.3c2.5,0,4.5,2,4.5,4.5v5.8c0,0.6-0.3,1.2-0.9,1.6
				C20.1,13.5,20,13.7,20,14v5.6c0,0.4,0.2,0.7,0.5,0.9c0.7,0.4,4.6,2.3,8.1,5.2c0.5,0.4,0.8,1,0.8,1.6v4c0,0.4,0.3,0.7,0.7,0.7
				c0.4,0,0.7-0.3,0.7-0.7v-4c0-1.1-0.5-2.1-1.3-2.7c-3.4-2.8-7-4.7-8.2-5.3v-5c0.7-0.6,1.2-1.6,1.2-2.5V6c0-3.3-2.7-6-6-6h-1.3
				c-3.3,0-6,2.7-6,6v5.8c0,1,0.4,1.9,1.2,2.5v5c-1.2,0.6-4.8,2.5-8.2,5.3c-0.8,0.7-1.3,1.7-1.3,2.7v4C1.2,31.7,1.5,32,1.9,32z"/>
		</g>
	</g>
</g>
</svg>
