<?xml version="1.0" encoding="utf-8"?>
<!-- Generator: Adobe Illustrator 24.0.1, SVG Export Plug-In . SVG Version: 6.00 Build 0)  -->
<svg version="1.1" id="Calque_1" xmlns="http://www.w3.org/2000/svg" xmlns:xlink="http://www.w3.org/1999/xlink" x="0px" y="0px"
	 viewBox="0 0 22 22" style="enable-background:new 0 0 22 22;" xml:space="preserve">
<style type="text/css">
	.st0{opacity:0.25;fill:#FFFFFF;}
	.st1{fill:#FFB300;}
</style>
<polygon class="st0" points="13.9,1.3 13.8,0.3 12.4,0.3 11.2,1.7 9.6,0.5 7.9,1.7 6.4,0.7 4.9,1.7 3.5,0.5 1.7,1.9 0.3,0.5 
	0.5,20.4 1.3,21.1 2.9,21.7 17.9,21.7 19.1,20.8 19.1,19.8 19.7,11.7 19.7,4.3 "/>
<g>
	<polygon class="st1" points="17.7,9.7 17.6,5.2 13.4,1.9 15.3,0.7 17.4,0.3 19.1,0.9 20.8,2 21.7,3.9 21.7,5.9 20.9,7.6 19.9,8.9 
		18.4,9.3 	"/>
	<g>
		<path d="M19.2,10.6h-0.1h-0.7h-1h-0.7h-1h-0.4V11c0,0,0,0,0,0v8.8c0,0.5,0.2,1,0.5,1.4H2.2c-0.8,0-1.4-0.6-1.4-1.4V1.5l0.8,0.8
			c0.2,0.2,0.4,0.2,0.6,0L3.5,1l1.2,1.2c0.2,0.2,0.4,0.2,0.6,0L6.5,1l1.2,1.2c0.2,0.2,0.4,0.2,0.6,0L9.6,1l1.2,1.2
			c0.2,0.2,0.4,0.2,0.6,0L12.6,1c0.2-0.2,0.4-0.4,0.6-0.6l-0.3-0.3c-0.2-0.2-0.4-0.2-0.6,0l-1.2,1.2L9.9,0.1C9.7,0,9.4,0,9.3,0.1
			L8,1.3L6.8,0.1C6.6,0,6.4,0,6.2,0.1L5,1.3L3.8,0.1C3.6,0,3.3,0,3.2,0.1L2,1.3L0.7,0.1C0.6,0,0.3,0,0.1,0.1C0,0.2,0,0.3,0,0.4v19.3
			C0,21,1,22,2.2,22h15.2c0,0,0,0,0,0c1.2,0,2.2-1,2.2-2.2V11C19.7,10.8,19.5,10.6,19.2,10.6z M18.8,19.8c0,0.8-0.6,1.4-1.4,1.4
			c-0.8,0-1.4-0.6-1.4-1.4v-8.3h2.8V19.8z"/>
		<path d="M7.6,9.8c-0.4,0-0.8-0.3-0.8-0.7c0-0.2-0.2-0.4-0.4-0.4C6.2,8.7,6,8.9,6,9.1c0,0.7,0.5,1.3,1.2,1.5V11
			c0,0.2,0.2,0.4,0.4,0.4c0.2,0,0.4-0.2,0.4-0.4v-0.4c0.7-0.2,1.2-0.8,1.2-1.5c0-0.8-0.7-1.5-1.6-1.5C7.2,7.6,6.9,7.3,6.9,7
			s0.3-0.7,0.8-0.7S8.4,6.6,8.4,7c0,0.2,0.2,0.4,0.4,0.4c0.2,0,0.4-0.2,0.4-0.4c0-0.7-0.5-1.3-1.2-1.5V5.2c0-0.2-0.2-0.4-0.4-0.4
			C7.4,4.8,7.2,5,7.2,5.2v0.3C6.5,5.7,6,6.3,6,7c0,0.8,0.7,1.5,1.6,1.5c0.4,0,0.8,0.3,0.8,0.7C8.4,9.5,8.1,9.8,7.6,9.8z"/>
		<path d="M11.1,7.6c-0.2,0-0.4,0.2-0.4,0.4c0,0.2,0.2,0.4,0.4,0.4H12c0.1,0,0.3-0.1,0.3-0.2c-0.2-0.2-0.3-0.4-0.4-0.7H11.1z"/>
		<path d="M4.6,8c0-0.2-0.2-0.4-0.4-0.4H3.3C3.1,7.6,2.9,7.8,2.9,8c0,0.2,0.2,0.4,0.4,0.4h0.8C4.4,8.5,4.6,8.3,4.6,8z"/>
		<path d="M12.2,12.4H5.4c-0.2,0-0.4,0.2-0.4,0.4s0.2,0.4,0.4,0.4h6.8c0.2,0,0.4-0.2,0.4-0.4C12.6,12.6,12.4,12.4,12.2,12.4z"/>
		<path d="M3.4,12.5c-0.1-0.1-0.2-0.1-0.3-0.1c-0.1,0-0.2,0-0.3,0.1c-0.1,0.1-0.1,0.2-0.1,0.3c0,0.1,0,0.2,0.1,0.3
			c0.1,0.1,0.2,0.1,0.3,0.1c0.1,0,0.2,0,0.3-0.1c0.1-0.1,0.1-0.2,0.1-0.3C3.5,12.7,3.5,12.6,3.4,12.5z"/>
		<path d="M12.2,15.2H5.4c-0.2,0-0.4,0.2-0.4,0.4s0.2,0.4,0.4,0.4h6.8c0.2,0,0.4-0.2,0.4-0.4C12.6,15.4,12.4,15.2,12.2,15.2z"/>
		<path d="M3.4,15.4c-0.1-0.1-0.2-0.1-0.3-0.1c-0.1,0-0.2,0-0.3,0.1c-0.1,0.1-0.1,0.2-0.1,0.3c0,0.1,0,0.2,0.1,0.3
			C2.9,16,3,16.1,3.1,16.1c0.1,0,0.2,0,0.3-0.1c0.1-0.1,0.1-0.2,0.1-0.3C3.5,15.5,3.5,15.4,3.4,15.4z"/>
		<path d="M12.2,18.1H5.4c-0.2,0-0.4,0.2-0.4,0.4c0,0.2,0.2,0.4,0.4,0.4h6.8c0.2,0,0.4-0.2,0.4-0.4S12.4,18.1,12.2,18.1z"/>
		<path d="M3.1,18.1c-0.1,0-0.2,0-0.3,0.1s-0.1,0.2-0.1,0.3c0,0.1,0,0.2,0.1,0.3s0.2,0.1,0.3,0.1c0.1,0,0.2,0,0.3-0.1
			c0.1-0.1,0.1-0.2,0.1-0.3s0-0.2-0.1-0.3C3.3,18.1,3.2,18.1,3.1,18.1z"/>
		<path d="M16,9C16,9,16,9,16,9c-0.1,0-0.1,0-0.1,0c-0.2,0-0.3,0.1-0.4,0.3c0,0.1,0,0.3,0.1,0.4c0,0.1,0.1,0.1,0.2,0.1
			c0.1,0,0.2,0,0.3,0.1c0,0,0,0,0.1,0c0.1,0,0.2,0,0.2-0.1c0.1-0.1,0.1-0.1,0.2-0.3c0-0.2-0.1-0.4-0.3-0.5C16.2,9.1,16.1,9.1,16,9z"
			/>
		<path d="M12.1,4.6c0,0.1-0.1,0.1-0.1,0.2c0,0.1,0,0.2,0,0.3c0,0.1,0,0.1,0.1,0.2c0.1,0.1,0.2,0.2,0.3,0.2c0,0,0,0,0,0
			c0.1,0,0.2,0,0.2-0.1c0.1-0.1,0.1-0.1,0.2-0.2c0,0,0-0.1,0-0.1c0-0.1,0-0.2,0-0.3c0,0,0-0.1,0-0.1c0-0.2-0.2-0.3-0.4-0.3
			c0,0,0,0,0,0C12.3,4.4,12.2,4.5,12.1,4.6z"/>
		<path d="M12.6,3.9c0,0,0.1,0,0.1,0c0.1,0,0.2,0,0.2-0.1c0,0,0.1-0.1,0.1-0.1c0,0,0-0.1,0-0.1c0-0.1,0.1-0.2,0.1-0.2
			c0.1-0.2,0-0.4-0.2-0.5c0,0-0.1,0-0.1,0c-0.2,0-0.3,0.1-0.4,0.3c0,0.1-0.1,0.2-0.1,0.3c0,0.1,0,0.1,0,0.2
			C12.3,3.8,12.4,3.9,12.6,3.9z"/>
		<path d="M13.2,8.2c0,0.1,0.1,0.1,0.2,0.1c0,0,0.1,0,0.1,0c0.1,0,0.2,0,0.2-0.1c0,0,0,0,0,0c0.1-0.1,0.2-0.3,0.1-0.5
			c0,0,0-0.1-0.1-0.1c-0.1-0.1-0.1-0.1-0.2-0.2c0,0-0.1,0-0.1-0.1c-0.1-0.1-0.2-0.1-0.2-0.1c-0.1,0-0.2,0-0.2,0.1
			C13,7.5,13,7.6,13,7.8C13,7.8,13,7.9,13,8C13.1,8,13.2,8.1,13.2,8.2z"/>
		<path d="M14.1,9c0,0.1,0.1,0.1,0.1,0.2c0.1,0.1,0.2,0.1,0.3,0.2c0.1,0,0.1,0.1,0.2,0.1c0,0,0,0,0,0c0.1,0,0.2,0,0.2-0.1
			c0,0,0.1-0.1,0.1-0.1C15.2,9,15.1,8.8,15,8.7c0,0,0-0.1-0.1-0.1c-0.1,0-0.1-0.1-0.2-0.1c0,0-0.1,0-0.1,0c0,0-0.1,0-0.1,0
			c-0.1,0-0.3,0.1-0.3,0.2C14.1,8.7,14.1,8.8,14.1,9z"/>
		<path d="M12.9,7C12.9,7,12.9,7,12.9,7c0.2-0.1,0.3-0.3,0.3-0.4c0,0,0-0.1,0-0.1c0-0.1-0.1-0.2-0.1-0.2c0,0,0-0.1,0-0.1
			c-0.1-0.1-0.2-0.2-0.3-0.2c0,0-0.1,0-0.1,0c-0.1,0-0.2,0.2-0.3,0.3c0,0.1,0,0.1,0,0.2c0,0.1,0.1,0.2,0.1,0.3
			c0,0.1,0.1,0.1,0.1,0.2C12.6,7,12.7,7,12.7,7C12.8,7,12.8,7,12.9,7z"/>
		<path d="M21.2,2.3C21.2,2.3,21.2,2.3,21.2,2.3c0-0.1-0.1-0.1-0.1-0.2c0,0,0-0.1-0.1-0.1c0,0,0,0,0,0c-0.1-0.1-0.2-0.2-0.2-0.3
			c-0.2-0.2-0.4-0.4-0.6-0.6c-0.4-0.3-0.7-0.5-1.2-0.7c-0.2-0.1-0.5-0.2-0.7-0.2c0,0,0,0,0,0c0,0,0,0,0,0c0,0-0.1,0-0.1,0
			c-0.1,0-0.2,0-0.2,0C17.6,0,17.3,0,17,0c-1,0-1.9,0.3-2.8,0.8l-0.3-0.5c0-0.1-0.1-0.1-0.1-0.1c0,0-0.1,0-0.1,0.1l-0.4,1.3
			c0,0.1,0.1,0.3,0.2,0.3l1.4,0.1c0,0,0,0,0,0c0.1,0,0.2-0.1,0.1-0.2l-0.3-0.5C15.4,1,16.2,0.8,17,0.8c0.3,0,0.6,0,1,0.1
			c0.5,0.1,1,0.3,1.4,0.6c0,0,0,0,0,0C19.7,1.8,20,2,20.2,2.3c0.1,0.1,0.2,0.2,0.2,0.3c1.3,1.9,0.9,4.5-1,5.8
			c-0.1,0.1-0.3,0.2-0.4,0.2h0c-0.1,0-0.1,0.1-0.2,0.1c0,0,0,0,0,0c0,0,0,0,0,0C18.5,8.9,18.3,9,18,9c-0.1,0-0.1,0-0.2,0.1
			c-0.2,0-0.4,0.2-0.3,0.5c0,0.2,0.2,0.3,0.4,0.3c0,0,0,0,0.1,0c0,0,0,0,0.1,0c0.3-0.1,0.6-0.1,0.9-0.3c0.4-0.1,0.7-0.3,1.1-0.6
			c0.2-0.2,0.4-0.3,0.6-0.5c0,0,0,0,0,0c0,0,0,0,0,0c0.7-0.7,1.2-1.6,1.4-2.7c0-0.1,0-0.2,0-0.3c0,0,0,0,0,0c0-0.1,0-0.2,0-0.3
			c0,0,0,0,0,0C22,4.2,21.8,3.2,21.2,2.3z"/>
		<path d="M17.6,2.1c0-0.2-0.1-0.3-0.3-0.3s-0.3,0.1-0.3,0.3v2.8l-2.6,1.3c-0.2,0.1-0.2,0.3-0.1,0.4c0.1,0.1,0.2,0.2,0.3,0.2
			c0,0,0.1,0,0.1,0l2.9-1.5L17.6,2.1L17.6,2.1z"/>
	</g>
</g>
</svg>
