<?xml version="1.0" encoding="utf-8"?>
<!-- Generator: Adobe Illustrator 24.0.1, SVG Export Plug-In . SVG Version: 6.00 Build 0)  -->
<svg version="1.1" id="Capa_1" xmlns="http://www.w3.org/2000/svg" xmlns:xlink="http://www.w3.org/1999/xlink" x="0px" y="0px"
	 viewBox="0 0 32 32" style="enable-background:new 0 0 32 32;" xml:space="preserve">
<style type="text/css">
	.st0{opacity:0.25;fill:#FFFFFF;}
	.st1{fill:#FFB300;}
</style>
<polygon class="st0" points="31.4,13 24.5,13 24.5,6.6 18.4,0.5 1.7,0.7 0.7,1.1 0.7,27.3 0.5,30.8 2.7,31.5 31.4,31.5 "/>
<circle class="st1" cx="9.4" cy="10" r="6.9"/>
<g>
	<g>
		<path d="M31.4,13h-4c-0.3,0-0.6,0.3-0.6,0.6v8.9c0,0.3,0.3,0.6,0.6,0.6c0.3,0,0.6-0.3,0.6-0.6v-8.2h2.8v16.5h-1.4H28v-9.2
			c0-0.3-0.3-0.6-0.6-0.6c-0.3,0-0.6,0.3-0.6,0.6v9.2h-1.3V17.8c0-0.3-0.3-0.6-0.6-0.6h-4c-0.3,0-0.6,0.3-0.6,0.6v12.9H19v-8.6
			c0-0.3-0.3-0.6-0.6-0.6h-4c-0.3,0-0.6,0.3-0.6,0.6v8.6h-1.3v-5c0-0.3-0.3-0.6-0.6-0.6h-4c-0.3,0-0.6,0.3-0.6,0.6v5H1.9
			c-0.3,0-0.6-0.3-0.6-0.6V1.9c0-0.3,0.3-0.6,0.6-0.6H18v4.1c0,1,0.8,1.9,1.9,1.9H24v7.7c0,0.3,0.3,0.6,0.6,0.6
			c0.3,0,0.6-0.3,0.6-0.6V6.6c0-0.2-0.1-0.3-0.2-0.4l-6-6C18.9,0.1,18.8,0,18.6,0H1.9C0.8,0,0,0.8,0,1.9v28.3c0,1,0.8,1.9,1.9,1.9
			h29.5c0.3,0,0.6-0.3,0.6-0.6V13.7C32,13.3,31.7,13,31.4,13z M19.2,2.1L23.1,6h-3.2c-0.3,0-0.6-0.3-0.6-0.6V2.1z M11.3,30.8H8.5
			v-4.4h2.8V30.8z M17.8,30.8H15v-7.9h2.8V30.8z M24.3,30.8h-2.8V18.4h2.8V30.8z"/>
	</g>
</g>
<g>
	<g>
		<path d="M15.9,18.4H4c-0.3,0-0.6,0.3-0.6,0.6c0,0.3,0.3,0.6,0.6,0.6h11.9c0.3,0,0.6-0.3,0.6-0.6S16.3,18.4,15.9,18.4z"/>
	</g>
</g>
<g>
	<g>
		<path d="M8,21.4H4c-0.3,0-0.6,0.3-0.6,0.6c0,0.3,0.3,0.6,0.6,0.6h4c0.3,0,0.6-0.3,0.6-0.6S8.3,21.4,8,21.4z"/>
	</g>
</g>
<g>
	<g>
		<path d="M9.4,9.4c-0.6,0-1.1-0.4-1.1-1s0.5-1,1.1-1s1.1,0.4,1.1,1c0,0.3,0.3,0.6,0.6,0.6s0.6-0.3,0.6-0.6c0-1-0.7-1.9-1.8-2.1V5.8
			c0-0.3-0.3-0.6-0.6-0.6S8.8,5.5,8.8,5.8v0.4C7.7,6.5,7,7.4,7,8.4c0,1.2,1.1,2.2,2.4,2.2c0.6,0,1.1,0.4,1.1,1c0,0.5-0.5,1-1.1,1
			s-1.1-0.4-1.1-1c0-0.3-0.3-0.6-0.6-0.6S7,11.2,7,11.6c0,1,0.7,1.9,1.8,2.1v0.5c0,0.3,0.3,0.6,0.6,0.6s0.6-0.3,0.6-0.6v-0.5
			c1-0.3,1.8-1.1,1.8-2.1C11.8,10.4,10.7,9.4,9.4,9.4z"/>
	</g>
</g>
</svg>
