<?xml version="1.0" encoding="utf-8"?>
<!-- Generator: Adobe Illustrator 24.0.1, SVG Export Plug-In . SVG Version: 6.00 Build 0)  -->
<svg version="1.1" id="Layer_1" xmlns="http://www.w3.org/2000/svg" xmlns:xlink="http://www.w3.org/1999/xlink" x="0px" y="0px"
	 viewBox="0 0 32 32" style="enable-background:new 0 0 32 32;" xml:space="preserve">
<style type="text/css">
	.st0{opacity:0.25;fill:#FFFFFF;}
	.st1{fill:#FFB300;}
</style>
<path class="st0" d="M4.3,26.4L15.9,32l11.7-5.6l-0.2-5.1l-2-1.7l-3.1-1.8L19.9,16v-2.8l0.1-1.7l0.7-0.8L21.2,9c0,0-0.7-4.9-0.7-5.2
	S19.9,2,19.9,2l-1.5-1l-1.9-0.6l-1.9,0.2l-1.8,0.9l-1.4,1.3l-0.2,1.3L11,10l1.3,1.8c0,0-0.3,4.5-0.3,4.6c0,0.2-5.1,3-5.1,3l-2.6,2.2
	v2.9V26.4z"/>
<g>
	<polygon class="st1" points="14.8,18.8 17,18.8 17.6,29.8 16,31.3 14.2,29.7 	"/>
	<g>
		<g>
			<path d="M4.3,26.4c0.3,0,0.6-0.3,0.6-0.6v-3.3c0-0.5,0.2-1,0.6-1.3c2.9-2.4,6.1-4,6.7-4.3c0.3-0.1,0.5-0.4,0.5-0.7v-4.6
				c0-0.2-0.1-0.4-0.3-0.5c-0.4-0.3-0.7-0.8-0.7-1.3V4.9c0-2.1,1.7-3.7,3.7-3.7h1c2.1,0,3.7,1.7,3.7,3.7v4.8c0,0.5-0.3,1-0.7,1.3
				c-0.2,0.1-0.3,0.3-0.3,0.5v4.6c0,0.3,0.2,0.6,0.5,0.7c0.6,0.3,3.8,1.9,6.7,4.3c0.4,0.3,0.6,0.8,0.6,1.3v3.3
				c0,0.3,0.3,0.6,0.6,0.6s0.6-0.3,0.6-0.6v-3.3c0-0.9-0.4-1.7-1.1-2.3c-2.8-2.3-5.8-3.9-6.7-4.4v-4.1c0.6-0.5,1-1.3,1-2.1V4.9
				c0-2.7-2.2-4.9-4.9-4.9h-1c-2.7,0-4.9,2.2-4.9,4.9v4.8c0,0.8,0.4,1.6,1,2.1v4.1c-1,0.5-4,2.1-6.7,4.4c-0.7,0.6-1.1,1.4-1.1,2.3
				v3.3C3.8,26.1,4,26.4,4.3,26.4z"/>
			<path d="M17.6,16.9c-0.3,0-0.6,0.3-0.6,0.6c0,0.3-0.1,0.6-0.3,0.7c0,0-0.1,0.1-0.1,0.1c-0.2,0.1-0.4,0.2-0.6,0.2
				c-0.5,0-1-0.5-1-1c0-0.3-0.3-0.6-0.6-0.6s-0.6,0.3-0.6,0.6c0,0.5,0.2,1,0.5,1.4L13.8,30c0,0.2,0.1,0.3,0.2,0.5l1.5,1.4
				c0.1,0.1,0.3,0.2,0.4,0.2s0.3-0.1,0.4-0.2l1.5-1.4c0.1-0.1,0.2-0.3,0.2-0.5l-0.5-11c0.4-0.4,0.6-0.9,0.6-1.5
				C18.2,17.2,17.9,16.9,17.6,16.9z M16,30.6L15,29.8l0.4-10.2c0.2,0,0.3,0.1,0.5,0.1c0.2,0,0.3,0,0.4,0l0.5,10.1L16,30.6z"/>
		</g>
	</g>
</g>
</svg>
