<?xml version="1.0" encoding="utf-8"?>
<!-- Generator: Adobe Illustrator 24.0.1, SVG Export Plug-In . SVG Version: 6.00 Build 0)  -->
<svg version="1.1" id="Calque_1" xmlns="http://www.w3.org/2000/svg" xmlns:xlink="http://www.w3.org/1999/xlink" x="0px" y="0px"
	 viewBox="0 0 22 22" style="enable-background:new 0 0 22 22;" xml:space="preserve">
<style type="text/css">
	.st0{opacity:0.25;fill:#FFFFFF;}
	.st1{fill:#FFB300;}
	.st2{fill:none;}
</style>
<polygon class="st0" points="20.9,2.8 21.7,4.2 21.5,17.8 20.9,19.3 19.3,19.8 1.8,19.5 1,19.2 0.3,18.1 0.3,3.7 1.1,2.7 2.2,2.3 
	19.4,2.3 "/>
<g>
	<g>
		<polygon class="st1" points="1.1,2.7 11,12 20.7,2.8 		"/>
	</g>
	<g>
		<path d="M11,13c-0.3,0-0.5-0.1-0.7-0.3L1,4.1C0.5,3.7,0.5,3,0.9,2.6c0.4-0.4,1-0.4,1.5-0.1l8.6,8l8.8-8.1c0.4-0.4,1.1-0.4,1.5,0.1
			c0.4,0.4,0.4,1.1-0.1,1.5l-9.5,8.8C11.5,12.9,11.3,13,11,13z"/>
	</g>
	<g>
		<g>
			<path class="st2" d="M19.7,2.8h-1.5h-1H4.7h-1H2.3C1.5,2.8,1,3.4,1,4.1v1.6H21v0.9l0,0l0-2.5C21,3.4,20.4,2.8,19.7,2.8z"/>
		</g>
		<g>
			<path d="M19.7,1.9h-1.5h-1H4.7h-1H2.3C1,1.9,0,2.9,0,4.1v13.7c0,1.2,1,2.3,2.3,2.3h17.5c1.2,0,2.3-1,2.3-2.3V4.1
				C22,2.9,21,1.9,19.7,1.9z M21,6.7L21,6.7v1v1.7v8.5c0,0.7-0.6,1.3-1.3,1.3H2.3c-0.7,0-1.3-0.6-1.3-1.3V9.4V7.7v-1V5.8V4.1
				c0-0.7,0.6-1.3,1.3-1.3h1.5h1h12.6h1h1.5c0.7,0,1.3,0.6,1.3,1.3L21,6.7L21,6.7z"/>
		</g>
	</g>
</g>
</svg>
